<?xml version="1.0" encoding="UTF-8"?>
<svg viewBox="0 0 1080 1080" xmlns="http://www.w3.org/2000/svg">
<g class="layer">
<title>Layer 1</title>
<g>
<rect class="cls-1" x="598.82" y="749.19" width="236.23" height="77.13"/>
<path class="cls-1" d="m704.88 26.07-19.29 53.02h323.4a251.98 251.98 0 0 0-182.74-78.09h-99.39q9.06 9.53-21.98 25.07z"/>
<rect class="cls-1" x="598.82" y="590.11" width="236.23" height="81.96"/>
<path class="cls-1" d="m835.04 156.23 19.27 62.68-91.53 9.62-14.53-72.3h-96.42q-38.64 67.55-77.13 115.71l366.38-19.29 43.39 81.93q14.47 38.66-48.21 4.83-482.12 9.7-660.45 9.64-28.93 86.76-106.06 163.86h761.7v159.16h147.54v-418.26a251.79 251.79 0 0 0-19.52-97.57h-224.44l0.01-0.01zm-351.93 337.46q-4.84-52.99-24.1-110.89l91.6-4.82a552.44 552.44 0 0 1 38.56 101.23l-106.06 14.47v0.01zm303.72-101.25 86.77-38.56q101.22 48.25 183.19 134.98l-96.42 43.39q-67.57-77.06-173.54-139.81z"/>
<path class="cls-1" d="m502.4 672.06v-81.93h-351.92v-62.71l-43.39 38.58-62.67-72.31q115.69-77.08 173.62-236.23l67.55 24.1 260.16-9.64-48.21-62.67q73.58-69.01 120.89-208.26h-327.42q11.04 9.53-20.02 25.07l-28.92 53.02h279.6v77.14h-144.62l28.93 62.68-96.42 19.25-19.29-81.93h-86.77q-48.25 72.3-130.16 144.61l-62.67-72.31q108.95-82.79 170.7-217.04a252.84 252.84 0 0 0-180.37 242.26v418.26l501.4 0.04v0.02z"/>
<path class="cls-1" d="m405.98 1004.7h77.13c12.81 0 19.29-6.47 19.29-19.27v-81.93h-351.92v-77.17h351.92v-77.13h-501.4v77.06a252.76 252.76 0 0 0 252.76 252.76h171.78l-19.55-74.31-0.01-0.01z"/>
<path class="cls-1" d="m931.46 749.19v188.02h-96.42v-33.75h-236.23v115.71q0 40.6-18.76 59.84h246.19a252.76 252.76 0 0 0 252.76-252.76v-77.06h-147.54z"/>
</g>
</g>
</svg>
