<?xml version="1.0" encoding="UTF-8"?>
<svg viewBox="0 0 1080 1080" xmlns="http://www.w3.org/2000/svg">
<g class="layer">
<title>Layer 1</title>
<g stroke="#fff" stroke-linejoin="round">
<rect class="cls-1" x="597.1" y="743.07" width="229.33" height="74.88"/>
<path class="cls-1" d="m700.06 41.09-18.73 51.47h313.95a244.62 244.62 0 0 0-177.4-75.81h-96.49q8.8 9.25-21.34 24.34h0.01z"/>
<rect class="cls-1" x="597.1" y="588.64" width="229.33" height="79.56"/>
<path class="cls-1" d="m826.42 167.44 18.71 60.85-88.85 9.34-14.11-70.19h-93.6q-37.51 65.58-74.88 112.33l355.67-18.73 42.12 79.54q14.05 37.53-46.8 4.69-468.03 9.42-641.15 9.36-28.08 84.22-102.96 159.07h739.44v154.51h143.23v-406.04a244.43 244.43 0 0 0-18.95-94.72h-217.88l0.01-0.01zm-341.64 327.6q-4.7-51.44-23.4-107.65l88.92-4.68a536.29 536.29 0 0 1 37.43 98.27l-102.96 14.05v0.01h0.01zm294.84-98.29 84.23-37.43q98.26 46.84 177.84 131.03l-93.6 42.12q-65.6-74.81-168.47-135.72z"/>
<path class="cls-1" d="m503.5 668.2v-79.54h-341.63v-60.88l-42.12 37.45-60.84-70.2q112.31-74.83 168.55-229.33l65.58 23.4 252.56-9.36-46.8-60.84q71.43-66.99 117.36-202.17h-317.85q10.72 9.25-19.43 24.34l-28.07 51.47h271.43v74.89h-140.39l28.08 60.85-93.6 18.69-18.73-79.54h-84.23q-46.84 70.19-126.36 140.38l-60.84-70.2q105.77-80.37 165.71-210.7a245.45 245.45 0 0 0-175.1 235.18v406.04l486.75 0.04v0.02l-0.03 0.01z"/>
<path class="cls-1" d="m409.9 991.11h74.88c12.44 0 18.73-6.28 18.73-18.71v-79.54h-341.63v-74.91h341.63v-74.88h-486.75v74.81a245.37 245.37 0 0 0 245.37 245.37h166.76l-18.98-72.14-0.01-0.01v0.01z"/>
<path class="cls-1" d="m920.02 743.07v182.52h-93.6v-32.76h-229.33v112.33q0 39.41-18.21 58.09h238.99a245.37 245.37 0 0 0 245.37-245.37v-74.81h-143.23 0.01z"/>
</g>
</g>
</svg>
