<?xml version="1.0" encoding="UTF-8"?>
<svg viewBox="0 0 1080 1080" xmlns="http://www.w3.org/2000/svg">
<g class="layer">
<title>Layer 1</title>
<g stroke-linejoin="round">
<rect class="cls-1" x="586.12" y="704.02" width="185.23" height="60.48"/>
<path class="cls-1" d="m669.28 137.03-15.13 41.57h253.57a197.58 197.58 0 0 0-143.28-61.23h-77.93q7.11 7.47-17.24 19.66h0.01z"/>
<rect class="cls-1" x="586.12" y="579.29" width="185.23" height="64.26"/>
<path class="cls-1" d="m771.34 239.09 15.11 49.15-71.76 7.54-11.4-56.69h-75.6q-30.3 52.97-60.48 90.73l287.27-15.13 34.02 64.24q11.35 30.31-37.8 3.79-378.02 7.61-517.85 7.56-22.68 68.02-83.16 128.48h597.24v124.8h115.69v-327.96a197.42 197.42 0 0 0-15.31-76.5h-175.98l0.01-0.01zm-275.94 264.6q-3.8-41.55-18.9-86.95l71.82-3.78a433.16 433.16 0 0 1 30.23 79.37l-83.16 11.35v0.01h0.01zm238.14-79.39 68.03-30.23q79.36 37.83 143.64 105.83l-75.6 34.02q-52.98-60.42-136.07-109.62z"/>
<path class="cls-1" d="m510.52 643.55v-64.24h-275.93v-49.17l-34.02 30.25-49.14-56.7q90.71-60.44 136.14-185.23l52.97 18.9 203.99-7.56-37.8-49.14q57.69-54.11 94.79-163.29h-256.72q8.66 7.47-15.69 19.66l-22.67 41.57h219.23v60.49h-113.39l22.68 49.15-75.6 15.1-15.13-64.24h-68.03q-37.83 56.69-102.06 113.38l-49.14-56.7q85.43-64.91 133.84-170.18a198.25 198.25 0 0 0-141.43 189.95v327.96l393.14 0.03v0.02l-0.02 0.01z"/>
<path class="cls-1" d="m434.92 904.36h60.48c10.05 0 15.13-5.07 15.13-15.11v-64.24h-275.93v-60.5h275.93v-60.48h-393.14v60.42a198.18 198.18 0 0 0 198.18 198.18h134.69l-15.33-58.27-0.01-0.01v0.01z"/>
<path class="cls-1" d="m846.94 704.02v147.42h-75.6v-26.46h-185.23v90.73q0 31.83-14.71 46.92h193.03a198.18 198.18 0 0 0 198.18-198.18v-60.42h-115.69 0.01z"/>
</g>
</g>
</svg>
