<?xml version="1.0" encoding="UTF-8"?>
<svg viewBox="0 0 1080 1080" xmlns="http://www.w3.org/2000/svg">
<g class="layer">
<title>Layer 1</title>
<g stroke-linejoin="round">
<rect class="cls-1" x="581.73" y="688.4" width="167.59" height="54.72"/>
<path class="cls-1" d="m656.97 175.41-13.69 37.61h229.43a178.76 178.76 0 0 0-129.64-55.4h-70.51q6.43 6.76-15.59 17.79h0.01z"/>
<rect class="cls-1" x="581.73" y="575.54" width="167.59" height="58.14"/>
<path class="cls-1" d="m749.31 267.74 13.67 44.47-64.93 6.83-10.31-51.29h-68.4q-27.41 47.92-54.72 82.09l259.91-13.69 30.78 58.13q10.27 27.43-34.2 3.43-342.02 6.88-468.53 6.84-20.52 61.55-75.24 116.24h540.36v112.91h104.67v-296.72a178.62 178.62 0 0 0-13.85-69.22h-159.22l0.01-0.01zm-249.66 239.4q-3.43-37.59-17.1-78.67l64.98-3.42a391.9 391.9 0 0 1 27.35 71.81l-75.24 10.27v0.01h0.01zm215.46-71.83 61.55-27.35q71.81 34.23 129.96 95.75l-68.4 30.78q-47.94-54.67-123.11-99.18z"/>
<path class="cls-1" d="m513.33 633.68v-58.13h-249.65v-44.49l-30.78 27.37-44.46-51.3q82.07-54.68 123.17-167.59l47.92 17.1 184.56-6.84-34.2-44.46q52.2-48.95 85.76-147.74h-232.28q7.83 6.76-14.2 17.79l-20.51 37.61h198.35v54.73h-102.59l20.52 44.47-68.4 13.66-13.69-58.13h-61.55q-34.23 51.29-92.34 102.59l-44.46-51.3q77.29-58.73 121.1-153.97a179.37 179.37 0 0 0-127.96 171.86v296.72l355.7 0.03v0.01l-0.02 0.01z"/>
<path class="cls-1" d="m444.93 869.66h54.72c9.09 0 13.69-4.59 13.69-13.67v-58.13h-249.65v-54.74h249.65v-54.72h-355.7v54.67a179.31 179.31 0 0 0 179.31 179.31h121.86l-13.87-52.72-0.01-0.01v0.01z"/>
<path class="cls-1" d="m817.71 688.4v133.38h-68.4v-23.94h-167.59v82.09q0 28.8-13.31 42.45h174.65a179.31 179.31 0 0 0 179.31-179.31v-54.67h-104.67 0.01z"/>
</g>
</g>
</svg>
