<?xml version="1.0" encoding="UTF-8"?>
<svg viewBox="0 0 535.02 617.78" xmlns="http://www.w3.org/2000/svg">
<g class="layer">
<title>Layer 1</title>
<g data-name="Layer 47">
<path transform="translate(-13.49 27.89)" d="m281 1.01 242.51 140v280l-242.51 140-242.51-140v-280l242.51-140m0-28.87-12.5 7.21-242.5 140-12.5 7.21v308.9l12.5 7.21 242.51 140 12.5 7.21 12.5-7.21 242.49-140 12.5-7.21v-308.9l-12.5-7.21-242.5-140.02-12.5-7.21v0.02z" stroke-width="0"/>
</g>
<g stroke-width="0">
<polygon points="294.23 272.6 361.01 305.98 361.01 130.5 294.23 113.81"/>
<polygon points="430.89 233 387.41 233 387.41 462.83 454.19 462.83 454.19 309.09 430.89 285.41"/>
<path d="m294.07 22.18v66h0.78l92.4 23.29v68.33l0.39 0.39 48.14 24.07 24.07 72.6v0.78h62.89l0.39-0.78-4.4-121.06-224.66-133.62z"/>
</g>
<g fill-opacity="null" stroke="#000" stroke-dasharray="null" stroke-linecap="null" stroke-linejoin="round" stroke-opacity="null" stroke-width="0">
<path d="m183.96 334.96 12.8-15.38h69.23l-7.69 23.08-74.33-7.69z"/>
<path d="m245.49 316.55-2.4-11.98-3.8-2.4 3.8-4.79 7.19 2.4 23.96 2.4h28.76v14.38l-2.4 2.4h-19.17l-4.79-2.4h-31.15z"/>
<path d="m140.66 299.36-11.41 13.33-39.98-1.88-11.45-51.39 24.74-1.92 0.02 32.36 38.08 9.49z"/>
<path d="m163.11 311.97 7.24-33.18 33.3 0.58-3.62 16.59-26.64-0.46-1.81 8.29 26.64 0.46-1.81 8.29-33.3-0.58z"/>
<path d="m119.64 346.78-81.93 81.93 16.39 24.58 65.55-73.74 32.77 8.19-32.77 40.97 32.77 8.19 24.58-49.16v-16.39l-24.58-8.19 32.77-40.97-46.4-13.71-19.14 38.29z"/>
<path d="m95.33 253.14 1.2-68.95 7.29-1.69 0.35-19.96 10.92-1.62-1.33 76.2 3.5 7.32-0.32 18.14-1.94 7.23-3.69 3.57-5.44-0.1 0.35-19.96-10.89-0.19z"/>
</g>
</g>
</svg>
