<?xml version="1.0" encoding="UTF-8"?>
<svg viewBox="0 0 535.02 617.78" xmlns="http://www.w3.org/2000/svg">
<g class="layer">
<title>Layer 1</title>
<g data-name="Layer 47">
<path transform="translate(-13.49 27.89)" d="m281 1.01 242.51 140v280l-242.51 140-242.51-140v-280l242.51-140m0-28.87-12.5 7.21-242.5 140-12.5 7.21v308.9l12.5 7.21 242.51 140 12.5 7.21 12.5-7.21 242.49-140 12.5-7.21v-308.9l-12.5-7.21-242.5-140.02-12.5-7.21v0.02z" stroke-width="0"/>
</g>
<g stroke-width="0">
<polygon points="302.23 274.6 369.01 307.98 369.01 132.5 302.23 115.81"/>
<polygon points="438.89 235 395.41 235 395.41 464.83 462.19 464.83 462.19 311.09 438.89 287.41"/>
<path d="m302.07 24.18v66h0.78l92.4 23.29v68.33l0.39 0.39 48.14 24.07 24.07 72.6v0.78h62.89l0.39-0.78-4.4-121.06-224.66-133.62z"/>
</g>
<g fill-opacity="null" stroke="#000" stroke-dasharray="null" stroke-linecap="null" stroke-linejoin="round" stroke-opacity="null" stroke-width="0">
<path d="m186.06 335.02 12.89-15.5h69.75l-7.75 23.25-74.89-7.75z"/>
<path d="m248.05 316.47-2.41-12.07-3.83-2.41 3.83-4.83 7.24 2.41 24.14 2.41h28.97v14.49l-2.41 2.41h-19.32l-4.83-2.41h-31.39z"/>
<path d="m142.43 299.16-11.5 13.43-40.28-1.89-11.54-51.78 24.93-1.93 0.02 32.6 38.36 9.57z"/>
<path d="m165.05 311.86 7.3-33.43 33.55 0.59-8.95 35.92-31.89-3.07z"/>
<path d="m121.25 346.94-82.55 82.55 16.51 24.77 66.04-74.3 33.02 8.26-27.02 41.28 27.02 8.26 24.77-49.53v-16.51l-24.77-8.26 33.02-41.28-46.75-13.81-19.29 38.57z"/>
<path d="m100.19 253.45 1.21-69.47 7.34-1.7 0.35-20.11 11-1.64-1.34 76.78 3.53 7.38-0.32 18.28-1.96 7.28-3.72 3.59-8.92-0.1 0.35-20.11-7.53-0.19z"/>
</g>
</g>
</svg>
