<?xml version="1.0" encoding="UTF-8"?>
<svg viewBox="0 0 535.02 617.78" xmlns="http://www.w3.org/2000/svg">
<g class="layer">
<title>Layer 1</title>
<g data-name="Layer 47">
<path transform="translate(-13.49 27.89)" d="m281 1.01 242.51 140v280l-242.51 140-242.51-140v-280l242.51-140m0-28.87-12.5 7.21-242.5 140-12.5 7.21v308.9l12.5 7.21 242.51 140 12.5 7.21 12.5-7.21 242.49-140 12.5-7.21v-308.9l-12.5-7.21-242.5-140.02-12.5-7.21v0.02z" stroke-width="0"/>
</g>
<g stroke-width="0">
<polygon points="302.23 274.6 369.01 307.98 369.01 132.5 302.23 115.81"/>
<polygon points="438.89 235 395.41 235 395.41 464.83 462.19 464.83 462.19 311.09 438.89 287.41"/>
<path d="m302.07 24.18v66h0.78l92.4 23.29v68.33l0.39 0.39 48.14 24.07 24.07 72.6v0.78h62.89l0.39-0.78-4.4-121.06-224.66-133.62z"/>
</g>
<g fill-opacity="null" stroke="#000" stroke-dasharray="null" stroke-linecap="null" stroke-linejoin="round" stroke-opacity="null" stroke-width="0">
<path d="m195.42 360.75 16.4-19.72h88.73l-9.86 29.58-95.27-9.86z"/>
<path d="m274.28 337.15-3.07-15.36-4.88-3.07 4.88-6.14 9.21 3.07 30.71 3.07h36.86v18.43l-3.07 3.07h-24.57l-6.14-3.07h-39.93z"/>
<path d="m139.92 315.12-14.63 17.09-51.24-2.41-14.68-65.87 31.72-2.46 0.03 41.48 48.8 12.17z"/>
<path d="m168.7 331.28 9.28-42.53 42.68 0.74-4.64 21.26-34.14-0.6-2.32 10.63 34.14 0.6-2.32 10.63-42.68-0.74z"/>
<path d="m112.98 375.9-92.36 88.14 34.72 20.96 57.64-67.09 42.01 10.5-42.01 52.51 42.01 10.5 31.51-63.01v-21l-31.51-10.5 42.01-52.51-59.48-17.57-24.54 49.07z"/>
<path d="m81.82 255.87 1.54-88.37 9.34-2.16 0.45-25.58 13.99-2.08-1.7 97.67 4.49 9.38-0.41 23.26-2.49 9.26-4.73 4.57-6.98-0.12 0.45-25.58-13.95-0.24z"/>
</g>
</g>
</svg>
