<?xml version="1.0" encoding="UTF-8"?>
<svg viewBox="0 0 535.02 617.78" xmlns="http://www.w3.org/2000/svg">
<g class="layer">
<title>Layer 1</title>
<g data-name="Layer 47">
<path transform="translate(-13.49 27.89)" d="m281 1.01 242.51 140v280l-242.51 140-242.51-140v-280l242.51-140m0-28.87-12.5 7.21-242.5 140-12.5 7.21v308.9l12.5 7.21 242.51 140 12.5 7.21 12.5-7.21 242.49-140 12.5-7.21v-308.9l-12.5-7.21-242.5-140.02-12.5-7.21v0.02z" stroke-width="0"/>
</g>
<g stroke-width="0">
<polygon points="242.77 343.38 284.59 364.29 284.59 254.4 242.77 243.94"/>
<polygon points="403.49 351.41 388.9 366.24 388.9 462.52 430.47 462.52 430.47 318.58 403.49 318.58"/>
<polygon points="328.36 318.58 301.13 318.58 301.13 462.52 342.95 462.52 342.95 366.24 328.36 351.41"/>
<polygon points="447.25 364.29 489.07 343.38 489.07 243.94 447.25 254.4"/>
<path d="m488.83 186.56h-75.13l-14.35-28.93-0.24-0.24h-66.86l-0.24 0.24-14.35 28.93h-75.62v41.33h0.49l57.87 14.59v42.79l0.24 0.24 30.15 15.07 15.07 45.47v0.49h39.39l0.24-0.49 15.07-45.47 30.15-15.07 0.24-0.24v-42.55l58.11-14.59h0.49v-41.33l-0.73-0.24z"/>
</g>
<path d="m132.08 373.72 8.16-9.81h44.15l-4.91 14.72-47.4-4.91z" fill-opacity="null" stroke="#000" stroke-dasharray="null" stroke-linecap="null" stroke-linejoin="round" stroke-opacity="null" stroke-width="0"/>
<path d="m171.32 361.98-1.53-7.64-2.43-1.53 2.43-3.06 4.58 1.53 15.28 1.53h18.34v9.17l-1.53 1.53h-12.23l-3.06-1.53h-19.87z" fill-opacity="null" stroke="#000" stroke-dasharray="null" stroke-linecap="null" stroke-linejoin="round" stroke-opacity="null" stroke-width="0"/>
<path transform="rotate(18 82.725 343.53)" d="m105.72 343.93-4.29 10.34-24.62 6.74-17.07-28.91 14.63-6.04 6.39 19.62 24.97-1.75z" fill-opacity="null" stroke="#000" stroke-dasharray="null" stroke-linecap="null" stroke-linejoin="round" stroke-opacity="null" stroke-width="0"/>
<path d="m118.79 359.06 4.62-21.16 21.23 0.37-2.31 10.58-16.99-0.3-1.15 5.29 16.99 0.3-1.15 5.29-21.23-0.37z" fill-opacity="null" stroke="#000" stroke-dasharray="null" stroke-linecap="null" stroke-linejoin="round" stroke-opacity="null" stroke-width="0"/>
<path d="m91.06 381.26-52.25 52.25 10.45 15.68 41.8-47.03 20.9 5.23-20.9 26.13 20.9 5.23 15.68-31.35v-10.45l-15.68-5.23 20.9-26.13-29.59-8.74-12.21 24.42z" fill-opacity="null" stroke="#000" stroke-dasharray="null" stroke-linecap="null" stroke-linejoin="round" stroke-opacity="null" stroke-width="0"/>
<path transform="rotate(20 84.529 298.31)" d="m84.05 323.21-14.32-41.58 4-2.6-4.14-12.04 6.19-3.35 15.82 45.96 3.7 3.62 3.77 10.94 0.41 4.75-1.43 2.94-3.28 1.13-4.14-12.04-6.57 2.26z" fill-opacity="null" stroke="#000" stroke-dasharray="null" stroke-linecap="null" stroke-linejoin="round" stroke-opacity="null" stroke-width="0"/>
</g>
</svg>
