<?xml version="1.0" encoding="UTF-8"?>
<svg viewBox="0 0 535.02 617.78" xmlns="http://www.w3.org/2000/svg">
<g class="layer">
<title>Layer 1</title>
<g data-name="Layer 47">
<path transform="translate(-13.49 27.89)" d="m281 1.01 242.51 140v280l-242.51 140-242.51-140v-280l242.51-140m0-28.87-12.5 7.21-242.5 140-12.5 7.21v308.9l12.5 7.21 242.51 140 12.5 7.21 12.5-7.21 242.49-140 12.5-7.21v-308.9l-12.5-7.21-242.5-140.02-12.5-7.21v0.02z" stroke-width="0"/>
</g>
<g stroke-width="0">
<polygon points="302.23 274.6 369.01 307.98 369.01 132.5 302.23 115.81"/>
<polygon points="438.89 235 395.41 235 395.41 464.83 462.19 464.83 462.19 311.09 438.89 287.41"/>
<path d="m302.07 24.18v66h0.78l92.4 23.29v68.33l0.39 0.39 48.14 24.07 24.07 72.6v0.78h62.89l0.39-0.78-4.4-121.06-224.66-133.62z"/>
</g>
<g fill-opacity="null" stroke="#000" stroke-dasharray="null" stroke-linecap="null" stroke-linejoin="round" stroke-opacity="null" stroke-width="0">
<path d="m185.3 340.42 15.02-18.05h81.24l-9.03 27.08-87.23-9.03z"/>
<path d="m257.5 318.81-2.81-14.06-4.46-2.81 4.46-5.62 8.44 2.81 28.12 2.81h33.75v16.87l-2.81 2.81h-22.5l-5.62-2.81h-36.56z"/>
<path d="m134.48 298.64-13.39 15.65-46.91-2.2-13.44-60.31 29.04-2.25 0.02 37.98 44.69 11.14z"/>
<path d="m160.83 313.44 8.5-38.94 39.08 0.68-10.43 41.84-37.14-3.58z"/>
<path d="m109.81 354.3-96.16 96.16 19.23 28.85 76.93-86.54 38.46 9.62-38.46 48.08 38.46 9.62 28.85-57.69v-19.23l-28.85-9.62 38.46-48.08-54.46-16.08-22.47 44.93z"/>
<path d="m85.28 245.4 1.41-80.91 8.55-1.98 0.41-23.42 12.81-1.91-1.56 89.43 4.11 8.59-0.37 21.29-2.28 8.48-4.33 4.18-10.39-0.11 0.41-23.42-8.78-0.22z"/>
</g>
</g>
</svg>
