<svg width="1080" height="1080" xmlns="http://www.w3.org/2000/svg" xmlns:svg="http://www.w3.org/2000/svg">
 <g class="layer">
  <title>Layer 1</title>
  <path d="m1051.67,204.54l-299.73,-188.88c-26.6,-16.85 -48.48,-5.32 -48.48,25.72l0,55.28l-326.63,0l0,-55.28c0,-31.04 -21.87,-42.57 -48.77,-25.72l-299.73,188.88c-26.6,16.85 -27.19,45.23 -1.18,62.96l302.1,204.85c26.01,17.74 47.29,7.09 47.29,-23.94l0,-56.16l326.63,0l0,56.16c0,31.04 21.58,41.68 47.59,23.94l302.1,-204.85c26.01,-17.74 25.42,-46.11 -1.18,-62.96l-0.01,0zm-1037.82,630.79c0,-133.9 90.16,-237.06 221.4,-237.06c129.47,0 221.69,106.41 221.69,237.06c0,133.02 -89.56,236.77 -221.69,236.77c-130.65,0 -221.4,-103.75 -221.4,-236.77zm342.59,0c0,-78.04 -40.5,-148.09 -121.19,-148.09c-80.4,0 -120.9,70.06 -120.9,148.09c0,78.33 39.31,147.8 120.9,147.8c81.88,0 121.19,-69.46 121.19,-147.8zm136.56,-182.97c0,-32.22 20.69,-50.25 48.48,-50.25c12.12,0 31.92,9.75 40.5,21.28l203.96,272.24l1.48,0l0,-243.27c0,-32.22 20.4,-50.25 48.18,-50.25c27.79,0 48.18,18.03 48.18,50.25l0,365.65c0,32.22 -20.4,50.25 -48.18,50.25c-12.41,0 -31.63,-9.75 -40.5,-21.28l-204.25,-268.99l-1.18,0l0,240.02c0,32.22 -20.69,50.25 -48.18,50.25s-48.48,-18.03 -48.48,-50.25l0,-365.65l-0.01,0zm473.54,369.49c0,-27.49 22.47,-50.25 49.96,-50.25c27.79,0 50.25,22.76 50.25,50.25c0,27.79 -22.47,50.25 -50.25,50.25c-27.49,0 -49.96,-22.47 -49.96,-50.25zm3.84,-379.84c0,-26.9 19.8,-43.75 46.11,-43.75c25.72,0 46.41,17.44 46.41,43.75l0,248c0,26.31 -20.69,43.75 -46.41,43.75c-26.31,0 -46.11,-16.85 -46.11,-43.75l0,-248z" id="svg_1"/>
 </g>

</svg>
