<?xml version="1.0" encoding="UTF-8"?>
<svg viewBox="0 0 250 300" xmlns="http://www.w3.org/2000/svg">
<title>pf3hlogo</title>
<g class="layer">
<title>Layer 1</title>
<g stroke="#000">
<rect transform="matrix(.85963 .51092 0 1.1633 -82.488 -87.77)" x="-2016498" y="217033" width="60" height="140" rx="2" ry="2"/>
<rect transform="matrix(-.91138 -.5315 1.1319 -.54523 11.183 219.62)" x="-1662062" y="193368" width="55.04" height="102.92" rx="2" ry="2"/>
</g>
<g transform="matrix(-1 -1.2246e-16 1.2246e-16 -1 141.83 439.64)" stroke="#000">
<rect transform="matrix(.85963 .51092 0 1.1633 -82.488 -87.77)" x="-24.07" y="257.19" width="60" height="140" rx="2" ry="2"/>
<rect transform="matrix(-.91138 -.5315 1.1319 -.54523 11.183 219.62)" x="21.84" y="-39.14" width="55.04" height="102.92" rx="2" ry="2"/>
</g>
<rect transform="matrix(.43304 .90138 -.90138 .43304 190.52 -20.476)" x="102.81" y="26.08" width="48.23" height="206.81" fill="null" fill-opacity="null" stroke="#000" stroke-dasharray="null" stroke-linecap="null" stroke-linejoin="null" stroke-opacity="null"/>
<g transform="matrix(1 2.4493e-16 -2.4493e-16 1 -30.828 -189.64)" stroke="#000">
<rect transform="matrix(.85963 .51092 0 1.1633 -82.488 -87.77)" x="137.63" y="229.16" width="60" height="140" rx="2" ry="2"/>
<rect transform="matrix(-.91138 -.5315 1.1319 -.54523 11.183 219.62)" x="-98.67" y="-13.37" width="55.04" height="102.92" rx="2" ry="2"/>
</g>
</g>
</svg>
