<?xml version="1.0" encoding="UTF-8"?>
<svg viewBox="0 0 1080 1080" xmlns="http://www.w3.org/2000/svg">
<g class="layer">
<title>Layer 1</title>
<path d="m560.25 914.63c-20.25 10.13-20.25 10.13-40.5 0l-101.25-50.63c-20.25-10.13-20.25-10.13 0-20.25l303.75-151.88v-172.13l-364.5 182.25v111.38c0 20.25 0 20.25-20.25 10.13l-101.25-50.63c-20.25-10.13-20.25-10.13-20.25-30.38v-405c0-20.25 0-20.25 20.25-30.38l283.5-141.75c20.25-10.13 20.25-10.13 40.5 0l101.25 50.63c20.25 10.13 20.25 10.13 0 20.25l-303.75 151.88v172.13l364.5-182.25v-111.38c0-20.25 0-20.25 20.25-10.13l101.25 50.63c20.25 10.13 20.25 10.13 20.25 30.38v405c0 20.25 0 20.25-20.25 30.38l-283.5 141.75z" stroke-dasharray="null" stroke-linecap="null" stroke-linejoin="round" stroke-width="1"/>
</g>
</svg>
