<?xml version="1.0" encoding="UTF-8"?>
<svg viewBox="0 0 1080 1080" xmlns="http://www.w3.org/2000/svg">
<g class="layer">
<title>Layer 1</title>
<path d="m563.19 968.97c-23.19 11.59-23.19 11.59-46.38 0l-115.94-57.97c-23.19-11.59-23.19-11.59 0-23.19l347.81-173.91v-197.09l-417.38 208.69v127.53c0 23.19 0 23.19-23.19 11.59l-115.94-57.97c-23.19-11.59-23.19-11.59-23.19-34.78v-463.75c0-23.19 0-23.19 23.19-34.78l324.63-162.31c23.19-11.59 23.19-11.59 46.38 0l115.94 57.97c23.19 11.59 23.19 11.59 0 23.19l-347.81 173.91v197.09l417.38-208.69v-127.53c0-23.19 0-23.19 23.19-11.59l115.94 57.97c23.19 11.59 23.19 11.59 23.19 34.78v463.75c0 23.19 0 23.19-23.19 34.78l-324.63 162.31z" stroke-dasharray="null" stroke-linecap="null" stroke-linejoin="round"/>
</g>
</svg>
