<?xml version="1.0" encoding="UTF-8"?>
<svg viewBox="0 0 1080 1080" xmlns="http://www.w3.org/2000/svg">
<title>pf3hlogo5small</title>
<g class="layer">
<title>Layer 1</title>
<path d="m561.75 942.37c-21.75 10.88-21.75 10.88-43.5 0l-108.75-54.38c-21.75-10.88-21.75-10.88 0-21.75l304.5-152.25c21.75-10.88 21.75-10.88 21.75-32.63v-141.38c0-21.75 0-21.75-21.75-10.88l-348 174c-21.75 10.88-21.75 10.88-21.75 32.63v97.88c0 21.75 0 21.75-21.75 10.88l-108.75-54.38c-21.75-10.88-21.75-10.88-21.75-32.63v-435c0-21.75 0-21.75 21.75-32.63l304.5-152.25c21.75-10.88 21.75-10.88 43.5 0l108.75 54.38c21.75 10.88 21.75 10.88 0 21.75l-304.5 152.25c-21.75 10.88-21.75 10.88-21.75 32.63v141.38c0 21.75 0 21.75 21.75 10.88l348-174c21.75-10.88 21.75-10.88 21.75-32.63v-97.88c0-21.75 0-21.75 21.75-10.88l108.75 54.38c21.75 10.88 21.75 10.88 21.75 32.63v435c0 21.75 0 21.75-21.75 32.63l-304.5 152.25z" stroke-dasharray="null" stroke-linecap="null" stroke-linejoin="round"/>
</g>
</svg>
